<svg width="320" height="180" viewBox="0 0 320 180" fill="none" xmlns="http://www.w3.org/2000/svg">
  <!-- Audio placeholder thumbnail SVG -->
  <rect width="320" height="180" fill="#1f2937"/>
  <rect x="10" y="10" width="300" height="160" rx="8" fill="#374151" stroke="#4b5563" stroke-width="2"/>
  
  <!-- Audio waveform visualization -->
  <g transform="translate(40, 90)">
    <rect x="0" y="-20" width="4" height="40" fill="#10b981" opacity="0.8"/>
    <rect x="8" y="-30" width="4" height="60" fill="#3b82f6" opacity="0.8"/>
    <rect x="16" y="-15" width="4" height="30" fill="#f59e0b" opacity="0.8"/>
    <rect x="24" y="-35" width="4" height="70" fill="#ef4444" opacity="0.8"/>
    <rect x="32" y="-25" width="4" height="50" fill="#8b5cf6" opacity="0.8"/>
    <rect x="40" y="-40" width="4" height="80" fill="#10b981" opacity="0.8"/>
    <rect x="48" y="-20" width="4" height="40" fill="#3b82f6" opacity="0.8"/>
    <rect x="56" y="-30" width="4" height="60" fill="#f59e0b" opacity="0.8"/>
    <rect x="64" y="-15" width="4" height="30" fill="#ef4444" opacity="0.8"/>
    <rect x="72" y="-35" width="4" height="70" fill="#8b5cf6" opacity="0.8"/>
    <rect x="80" y="-25" width="4" height="50" fill="#10b981" opacity="0.8"/>
    <rect x="88" y="-40" width="4" height="80" fill="#3b82f6" opacity="0.8"/>
    <rect x="96" y="-20" width="4" height="40" fill="#f59e0b" opacity="0.8"/>
    <rect x="104" y="-30" width="4" height="60" fill="#ef4444" opacity="0.8"/>
    <rect x="112" y="-15" width="4" height="30" fill="#8b5cf6" opacity="0.8"/>
    <rect x="120" y="-35" width="4" height="70" fill="#10b981" opacity="0.8"/>
    <rect x="128" y="-25" width="4" height="50" fill="#3b82f6" opacity="0.8"/>
    <rect x="136" y="-40" width="4" height="80" fill="#f59e0b" opacity="0.8"/>
    <rect x="144" y="-20" width="4" height="40" fill="#ef4444" opacity="0.8"/>
    <rect x="152" y="-30" width="4" height="60" fill="#8b5cf6" opacity="0.8"/>
    <rect x="160" y="-15" width="4" height="30" fill="#10b981" opacity="0.8"/>
    <rect x="168" y="-35" width="4" height="70" fill="#3b82f6" opacity="0.8"/>
    <rect x="176" y="-25" width="4" height="50" fill="#f59e0b" opacity="0.8"/>
    <rect x="184" y="-40" width="4" height="80" fill="#ef4444" opacity="0.8"/>
    <rect x="192" y="-20" width="4" height="40" fill="#8b5cf6" opacity="0.8"/>
    <rect x="200" y="-30" width="4" height="60" fill="#10b981" opacity="0.8"/>
    <rect x="208" y="-15" width="4" height="30" fill="#3b82f6" opacity="0.8"/>
    <rect x="216" y="-35" width="4" height="70" fill="#f59e0b" opacity="0.8"/>
    <rect x="224" y="-25" width="4" height="50" fill="#ef4444" opacity="0.8"/>
    <rect x="232" y="-40" width="4" height="80" fill="#8b5cf6" opacity="0.8"/>
  </g>
  
  <!-- Play button -->
  <circle cx="160" cy="90" r="25" fill="#ffffff" opacity="0.9"/>
  <polygon points="150,80 150,100 175,90" fill="#1f2937"/>
  
  <!-- Audio text -->
  <text x="160" y="140" text-anchor="middle" fill="#9ca3af" font-family="Arial" font-size="14" font-weight="bold">AUDIO PREVIEW</text>
  <text x="160" y="155" text-anchor="middle" fill="#6b7280" font-family="Arial" font-size="12">Click to play audio</text>
</svg>